<svg width="238" height="73" viewBox="0 0 238 73" fill="none" xmlns="http://www.w3.org/2000/svg">
<path d="M19.5 8.70001H66.7L53.7 59.4L5.59998 59.2L19.5 8.70001Z" fill="#090909"/>
<path d="M66.8 8.70001H115L102 59.6L53.9 59.4L66.8 8.70001Z" fill="#FF0000"/>
<path d="M16.2 55.5C13.7 55.2 12 54 11.7 52.3C11.3 50.3 13 44 15.3 39.1C17.7 34 20.4 32.1 26.3 31.1C31.9 30.2 55.8 29.7 56.6 30.4C56.7 30.5 56.5 31.5 56.1 32.7L55.4 34.8L44.9 35C32.1 35.2 29.4 35.6 27.3 37.4C26.1 38.4 25.2 40.3 23.7 44.4C22.4 48.1 22.4 49.1 23.4 49.7C24.5 50.3 29.8 50.6 36 50.4L41.3 50.2L42 49C42.3 48.4 42.6 47.4 42.7 46.9C42.9 45.6 42.4 45.5 38.1 45.6C36.2 45.7 34.6 45.6 34.5 45.5C34.4 45.4 34.5 44.3 34.9 43.2L35.6 41.1H44.3C49.1 41.1 53.1 41.2 53.2 41.3C53.4 41.5 52.5 45.3 50.7 51.7L49.6 55.5L44 55.7C37 55.8 18.3 55.8 16.2 55.5Z" fill="white"/>
<path d="M88 55.9C87.7 55.8 85.7 53.4 83.5 50.6C78.6 44 77.5 42.4 77.5 41.6C77.5 41 77.6 40.9 81.8 40.9C86.6 40.9 90.4 40.5 91.4 39.9C92.8 39.1 93.5999 36.1 92.5999 35.3C84.5999 34.7 80.8 34.9 73.3 35.1L70.8 45C69.4 50.5 68.5 55.2 68.4 55.3C64.8 55.4 62.6 55.3 58.2 55.4C60 46.5 62.3999 37.5 64.5999 30H82C88.1 30 88.4 30 98.5 30C101.4 30 102.9 32.3 103.5 32.9C104.4 33.9 104.4 34.2 104.3 36C103.8 41.2 100.3 44.6 94.6999 45.1C93.0999 45.3 92.6 45.4 92.5 45.9C92.4 46.2 93.7999 48.5 95.6999 51C98.4999 54.9 98.9 55.6 98.4 55.8C97.7 56.1 88.9 56.1 88 55.9Z" fill="white"/>
<path d="M184.2 40.7C181.8 40.4 181.4 39.3 182.3 35C182.8 32.5 183.3 31.3 184.1 30.6C185.6 29.3 187.7 28.9 193.1 28.9C198.2 28.9 199.4 29.2 200 30.4C200.3 31 200.3 31.5 200 33C199.9 33.6 199.6 35 199.3 36C198.8 38.2 198.7 38.6 197.8 39.4C197 40.2 196 40.5 194.1 40.7C192.3 40.8 185.8 40.9 184.2 40.7ZM193.1 38.1C194.2 37.6 194.3 37.4 195 34.6C195.6 32.1 195.5 31.7 194.4 31.3C193.7 31 190.6 31 189.6 31.2C188.6 31.4 188.2 32 187.7 33.9C187.1 36.5 187 37.1 187.4 37.6C187.8 38.3 188.3 38.4 190.4 38.4C191.8 38.5 192.4 38.4 193.1 38.1ZM203.8 40.7C201.4 40.4 201 39.4 201.8 35.4C202.3 32.6 202.7 31.7 203.4 30.9C204.7 29.3 206.3 29 212.8 29.1C217.7 29.2 218.2 29.3 219 30.2C219.8 31.2 219.8 31.8 219.2 34.8C218.6 37.9 218.2 38.9 217.3 39.6C216.1 40.6 215.1 40.7 209.8 40.8C207 40.8 204.4 40.8 203.8 40.7ZM212.1 38.2C213.4 37.6 213.8 36.8 214.2 34C214.4 32.1 214.3 31.6 213.3 31.3C212.4 31 209.3 31 208.4 31.3C207.5 31.6 207.2 32 206.7 34C206.2 36 206.1 37.6 206.6 37.9C207.1 38.3 207.3 38.4 209.4 38.4C210.9 38.5 211.5 38.4 212.1 38.2ZM141.5 37.5C144.5 31.7 145.1 30.8 147.2 29.8C148.6 29.1 150.1 29 154.6 29H158.7V40.7H153.7V37.3H150.5C148.7 37.3 147.2 37.3 147 37.4C146.9 37.5 146.4 38.2 146 39.1L145.3 40.7H140L141.5 37.5ZM153.5 33.2C153.5 32.2 153.5 31.2 153.5 31.2C153.5 31.1 153 31 152.4 31C151 30.9 149.9 31.4 149.2 32.4C148.6 33.2 147.8 34.8 147.8 35C147.8 35.1 149.1 35.2 150.6 35.2H153.4V33.2H153.5ZM161.6 39.6C161.7 39.1 161.8 38.6 161.9 38.4C162 38.2 162.9 37.5 164 36.8C166 35.4 167.6 34.3 169.6 32.9C170.2 32.5 171.2 31.8 171.7 31.5C172.2 31.2 172.6 30.8 172.5 30.8C172.5 30.7 170.3 30.7 167.8 30.7C164.1 30.7 163.2 30.7 163.1 30.5C163.1 30.4 163.1 29.9 163.2 29.5L163.4 28.7H181.2L181.1 29.5C181 30.5 180.8 30.8 180 31.3C179.6 31.5 178.3 32.4 177.1 33.3C175.9 34.2 173.9 35.6 172.6 36.5L170.3 38.1H175.1C177.7 38.1 179.9 38.2 179.9 38.3C179.9 38.4 179.8 38.8 179.7 39.3L179.5 40.2H170.6H161.7L161.6 39.6ZM128.2 40.8C121.9 40.7 119.6 40.6 119.3 40.5C118 39.6 118 38.3 118 37.4C118.1 35.2 118.9 32.3 119.8 30.5C120.3 29.4 121.6 28.3 122.6 27.8C124.5 27 125.5 26.9 133 26.8L140.2 26.7V27.1C140.2 27.3 140.1 28 140 28.5L139.8 29.5H135.4C128.9 29.5 126.7 29.8 125.5 31C124.7 31.8 123.2 36.2 123.4 37C123.6 37.6 124.2 37.7 128.5 37.7C133.2 37.7 132.9 38.2 133.1 36.4L133.2 35.3H131.1C130 35.3 129 35.3 129 35.2L129.8 32.4H134.3C138 32.4 138.8 32.4 138.8 32.6C138.8 32.7 138.5 34.2 138.1 35.8C137.4 38.5 137.3 39.2 136.9 40.4C136.8 40.6 136.7 40.8 136.7 40.8C136.7 40.9 132.8 40.9 128.2 40.8Z" fill="#090909"/>
<path d="M197.8 63.7C197.8 63.6 198.1 63 198.5 62.4L199.2 61.3L202.1 61.2C203.7 61.2 205.3 61 205.7 60.9C206.5 60.6 208 59.3 208 58.8C208 58.5 207.6 58.5 204.4 58.5C200.3 58.5 199.8 58.4 199.1 57.2C198.8 56.6 198.8 56.5 199.1 54.8C199.6 52.1 199.7 51.7 200.5 50.9C201.4 49.9 203 49.2 204.9 48.9C205.7 48.8 208.4 48.7 210.7 48.7H215V49.4C215 49.8 214.9 50 214.8 50C214.7 49.9 214.5 50.6 214.4 51.5C214.1 53.4 213.2 58 212.9 58.9C212.4 60.1 211.9 61 211.1 61.8C210 62.8 209.4 63.1 207.9 63.4C207.2 63.5 206.6 63.7 206.6 63.8C206.6 63.9 204.7 63.9 202.3 63.9C199.1 63.9 197.8 63.9 197.8 63.7ZM208.2 55.7C208.6 54.1 209 52.1 209.1 51.5L209.2 50.8L207.8 50.9C205.7 51.1 204.5 51.7 203.8 53C203.5 53.6 203.3 54.3 203.3 54.8C203.3 56 203.7 56.2 206.1 56.2C208 56.1 208.1 56 208.2 55.7ZM190.8 58.4C190.7 58.3 190.9 56.9 191.3 55.4C191.6 53.8 191.8 52.3 191.8 52.1C191.6 51.4 190.7 51 188.9 51H187.3L185.8 58.4H181.1L181.2 57.6C181.3 57.2 181.6 55.8 181.8 54.5C182.1 53.2 182.5 51.5 182.6 50.5L182.9 48.8L183.8 48.7C185.2 48.5 191.7 48.6 193.2 48.8C195.5 49.1 196.5 49.9 196.7 51.4C196.8 52.1 195.9 57.1 195.5 58C195.4 58.2 195.1 58.3 193.7 58.3C192.8 58.3 191.8 58.3 191.5 58.4C191.1 58.5 190.8 58.5 190.8 58.4ZM137.9 58.3C137.4 58.1 137.2 57.6 137.2 56.3C137.2 54.7 137.5 54 138.4 53.2C139.4 52.3 140.6 52.1 143.7 52C147.1 52 147.6 51.9 147.6 51.5C147.6 51.3 147.4 51 147.1 50.8C146.6 50.4 146.4 50.4 142.9 50.4H139.1L139.2 49.8C139.3 49.5 139.3 49.1 139.3 48.9C139.3 48.6 139.5 48.5 144.7 48.6C149.7 48.7 150.1 48.7 150.7 49C151.1 49.2 151.5 49.7 151.8 50C152.2 50.6 152.2 50.8 152.1 52.1C152 53.6 151.2 57.8 150.9 58.1C150.8 58.3 138.3 58.4 137.9 58.3ZM146.9 55.5C147 54.9 147.1 54.4 147 54.3C146.9 54.2 145.8 54.2 144.4 54.3C142.5 54.4 141.9 54.5 141.7 54.7C141.4 55 141 56.3 141.2 56.6C141.3 56.7 142.5 56.7 144 56.7L146.7 56.6L146.9 55.5ZM156.9 58.2C156.1 58 155.4 57.5 155 56.7C154.5 55.8 154.7 54.2 155.4 52.4C156.7 49.1 157.8 48.7 165.9 48.7H170.4V49.3C170.4 50.8 170.7 50.7 166.2 50.8C162.6 50.9 162.2 50.9 161.6 51.2C160.7 51.7 160.1 52.9 160.1 54.3C160.1 56.1 160.1 56.1 165.1 56.2L169.3 56.3L169.2 57.2C169.1 57.7 169 58.1 169 58.2C168.9 58.2 157.7 58.3 156.9 58.2ZM172.5 58C172.6 57.7 172.8 56.5 173 55.4C173.2 54.2 173.6 52.3 173.8 51.1L174.2 48.9H176.4C177.6 48.9 178.7 48.9 178.8 49C178.9 49 178.9 49.4 178.8 50.2C178.7 50.8 178.4 52.3 178.2 53.5C178 54.7 177.7 56.3 177.5 57C177.4 57.7 177.2 58.4 177.2 58.4C177.2 58.5 176.1 58.5 174.8 58.5H172.4L172.5 58ZM174.5 47C174.4 47 174.9 44.6 175 44.6C175.5 44.6 179.1 44.6 179.6 44.6C179.6 44.6 179.4 46.1 179.3 47C177.7 47 176 47 174.5 47Z" fill="#090909"/>
<path d="M113.8 58.5C113.7 58.5 113.6 58.4 113.6 58.3C113.6 58.2 115.1 52.7 116.6 47.1C117 45.6 117.3 44.4 117.3 44.4C117.3 44.3 127 44.4 131 44.4C133.9 44.5 134.8 44.5 135.1 44.6C135.7 44.8 136.5 45.5 136.8 46C137 46.4 137 46.5 137 47.3C137 48 136.9 48.3 136.8 48.9C136.5 49.8 136 50.7 135.4 51.2C134.6 52 133.6 52.4 131.7 52.6C131.1 52.7 130.6 52.7 130.6 52.7C130.6 52.7 131 53.3 131.5 54.1C133.2 56.7 134.2 58.3 134.2 58.4C134.2 58.5 133.3 58.5 131.4 58.5H128.6L127.9 57.4C127.5 56.8 126.4 55.1 125.5 53.7C124.2 51.8 123.8 51 123.8 50.9V50.7L126.5 50.6C128 50.6 129.5 50.5 129.8 50.4C130.6 50.3 131.2 49.9 131.5 49.4C131.7 49.1 131.7 48.9 131.7 48.3C131.7 47 131.8 47 126.2 47C122.4 47 121.8 47 121.7 47.1C121.6 47.2 120.3 52.5 119.2 57.7L119.1 58.3L117.4 58.4C115.5 58.6 114 58.6 113.8 58.5Z" fill="#FF0000"/>
<path d="M144.5 22.5C143.1 22.3 142.5 21.9 142.2 20.8C142 20 142 19.7 142.4 17.5C143.1 14 143.7 13 145.5 12.2C146.9 11.5 149 11.3 153.5 11.3C158 11.3 159 11.5 159.8 12.3C160.5 13.1 160.6 13.8 159.9 16.8C159.3 19.8 158.9 20.6 158 21.4C156.8 22.3 155.8 22.5 150.4 22.6C147.8 22.6 145.1 22.6 144.5 22.5ZM153.2 20C154.2 19.6 154.5 19.1 155.1 16.4C155.5 14.7 155.5 14.5 155.2 14.1C154.8 13.5 153.9 13.3 151.9 13.3C150 13.3 149 13.5 148.5 13.9C148.1 14.2 147.4 16.6 147.2 18.2C147.1 18.9 147.1 19.2 147.4 19.5C147.8 20.1 148.3 20.2 150.4 20.3C152 20.4 152.5 20.3 153.2 20ZM181.2 22.5C179.8 22.3 179.6 22.2 179.2 21.7C178.7 21.1 178.8 19.1 179.4 16.8C180 14.5 180.1 14.2 180.8 13.4C182.2 11.9 184.3 11.4 190.1 11.4C194.7 11.4 195.7 11.5 196.5 12.3C197.4 13.1 197.4 13.8 196.8 16.8C196.1 20 195.9 20.7 194.9 21.4C193.7 22.4 192.7 22.6 187.2 22.6C184.5 22.6 181.8 22.6 181.2 22.5ZM189.9 20C191.2 19.5 191.7 18.5 192 15.9C192.3 13.7 191.8 13.3 188.6 13.3C186.6 13.3 185.6 13.5 185.2 14C184.8 14.4 184.3 16.2 184 17.8C183.6 20 184 20.4 187 20.4C188.7 20.4 189.2 20.3 189.9 20ZM166.7 22.2C167.4 19.2 167.5 18.1 167.3 17.9C166.8 17.3 166.4 16.8 164 14.1C162.6 12.5 161.6 11.2 161.6 11.2C161.7 11.1 165.6 11 165.8 11.1C165.9 11.2 168.1 13.7 169.9 15.7C170.2 16 170.3 16 173.3 13.5L176.4 11H177.3C177.8 11 178.8 11.1 179.4 11.1L180.6 11.2L179.9 11.7C178.5 12.8 172.3 17.9 172.2 18.1C172.1 18.2 172 18.7 171.9 19.2C171.8 19.7 171.6 20.7 171.5 21.3L171.3 22.4H168.9C166.8 22.5 166.7 22.5 166.7 22.2ZM203.2 22.1C203.2 21.9 203.3 21.2 203.5 20.7C203.9 19.1 205 13.9 205 13.6C205 13.4 204.3 13.4 202.2 13.4C200.6 13.4 199.3 13.4 199.3 13.3C199.3 13.3 199.3 12.8 199.4 12.2L199.5 11.2L200.3 11.1C201.4 10.9 216.1 10.9 216.4 11.1C216.6 11.2 216.5 11.5 216.3 12.3L216 13.4H209.8L209.6 14.4C209.5 15 209 17 208.6 18.9L207.8 22.4H205.5C203.3 22.5 203.2 22.5 203.2 22.1ZM213.8 22.4C213.8 22.2 216.8 16.8 217.7 15.4C219.1 13 220.8 11.9 223.3 11.5C224.7 11.3 232.4 11.3 232.5 11.5C232.5 15.3 232.5 18.6 232.5 22.6H227.7L227.6 21L227.5 19.4H224.1C221.4 19.4 220.7 19.4 220.5 19.6C220.4 19.7 220 20.5 219.7 21.2L219.1 22.6H216.5C214.9 22.5 213.8 22.4 213.8 22.4ZM227.2 15.1V13.1H226.1C224.9 13.1 223.7 13.5 223.2 14.1C222.8 14.5 221.6 16.6 221.6 16.9C221.6 17 222.4 17.1 224.4 17.1H227.2V15.1ZM127.5 21.8C127.5 21.6 127.6 21.2 127.7 20.9C127.8 20.6 128.2 19 128.6 17.3C129 15.6 129.5 13.7 129.7 13C129.9 12.3 130 11.7 129.9 11.7C129.9 11.6 128.2 11.6 126.3 11.6C123.6 11.6 122.8 11.5 122.8 11.4C122.8 11.3 123 10.7 123.2 10.1L123.6 9H133.2C138.5 9 142.9 9 143 9.1C143.3 9.2 143.3 9.3 142.9 10.9L142.7 11.7H139.1C136.1 11.7 135.5 11.8 135.3 12C135.2 12.1 135 13 134.8 13.8C134 17 133.3 20 133 21.1L132.7 22.2H130.1C127.6 22.2 127.5 22.2 127.5 21.8Z" fill="#090909"/>
</svg>
