<svg width="24" height="24" viewBox="0 0 24 24" fill="none" xmlns="http://www.w3.org/2000/svg">
<path d="M16.431 0H6.667C4.8988 0 3.20302 0.702414 1.95272 1.95272C0.702414 3.20302 0 4.8988 0 6.667V16.431C0 18.1992 0.702414 19.895 1.95272 21.1453C3.20302 22.3956 4.8988 23.098 6.667 23.098H16.431C18.1992 23.098 19.895 22.3956 21.1453 21.1453C22.3956 19.895 23.098 18.1992 23.098 16.431V6.667C23.098 4.8988 22.3956 3.20302 21.1453 1.95272C19.895 0.702414 18.1992 0 16.431 0ZM20.971 16.6C20.9714 17.1814 20.8572 17.7571 20.635 18.2943C20.4128 18.8315 20.0869 19.3197 19.676 19.7309C19.2651 20.1421 18.7771 20.4683 18.2401 20.6909C17.703 20.9134 17.1273 21.028 16.546 21.028H6.553C5.97173 21.0281 5.39613 20.9137 4.85909 20.6914C4.32204 20.469 3.83407 20.143 3.42305 19.7319C3.01203 19.3209 2.68602 18.833 2.46364 18.2959C2.24126 17.7589 2.12687 17.1833 2.127 16.602V6.61C2.127 6.02877 2.24148 5.45323 2.46391 4.91624C2.68634 4.37926 3.01235 3.89134 3.42334 3.48034C3.83434 3.06935 4.32225 2.74334 4.85924 2.52091C5.39623 2.29848 5.97177 2.184 6.553 2.184H16.546C17.1272 2.184 17.7028 2.29848 18.2398 2.52091C18.7767 2.74334 19.2647 3.06935 19.6757 3.48034C20.0866 3.89134 20.4127 4.37926 20.6351 4.91624C20.8575 5.45323 20.972 6.02877 20.972 6.61L20.971 16.6Z" fill="#6A6A6A"/>
<path d="M11.549 5.608C10.364 5.608 9.20559 5.95931 8.2202 6.61752C7.2348 7.27573 6.46666 8.2113 6.01286 9.30597C5.55906 10.4006 5.43997 11.6053 5.67065 12.7676C5.90132 13.9299 6.4714 14.9978 7.30884 15.8362C8.14627 16.6746 9.21347 17.246 10.3755 17.478C11.5376 17.71 12.7424 17.5923 13.8376 17.1398C14.9328 16.6873 15.8692 15.9202 16.5286 14.9356C17.188 13.951 17.5406 12.793 17.542 11.608C17.5429 10.8204 17.3886 10.0403 17.0878 9.31243C16.7871 8.58452 16.3458 7.92303 15.7892 7.36579C15.2326 6.80854 14.5716 6.36648 13.844 6.06486C13.1165 5.76325 12.3366 5.608 11.549 5.608ZM11.549 15.486C10.7802 15.4866 10.0285 15.2591 9.38906 14.8322C8.74963 14.4054 8.25122 13.7984 7.95692 13.0882C7.66262 12.3779 7.58567 11.5963 7.7358 10.8423C7.88593 10.0883 8.2564 9.39583 8.80031 8.85248C9.34422 8.30913 10.0371 7.93938 10.7913 7.79002C11.5454 7.64066 12.3269 7.71843 13.0369 8.01346C13.7468 8.30849 14.3533 8.80753 14.7795 9.4474C15.2056 10.0873 15.4324 10.8392 15.431 11.608C15.4305 12.6375 15.0213 13.6247 14.2935 14.3528C13.5656 15.0808 12.5785 15.4902 11.549 15.491V15.486Z" fill="#6A6A6A"/>
</svg>
