<svg width="24" height="17" viewBox="0 0 24 17" fill="none" xmlns="http://www.w3.org/2000/svg">
<path d="M22.535 2.51599C22.4038 2.02821 22.1468 1.58348 21.7897 1.22632C21.4325 0.869159 20.9878 0.612115 20.5 0.480988C18.705 -1.24574e-05 11.508 0 11.508 0C11.508 0 4.30798 -1.24574e-05 2.51598 0.480988C2.0282 0.612115 1.58344 0.869159 1.22628 1.22632C0.869125 1.58348 0.612108 2.02821 0.48098 2.51599C-0.160327 6.18115 -0.160327 9.92984 0.48098 13.595C0.612108 14.0828 0.869125 14.5275 1.22628 14.8847C1.58344 15.2419 2.0282 15.4989 2.51598 15.63C4.31098 16.111 11.508 16.111 11.508 16.111C11.508 16.111 18.708 16.111 20.5 15.63C20.9878 15.4989 21.4325 15.2419 21.7897 14.8847C22.1468 14.5275 22.4038 14.0828 22.535 13.595C23.1763 9.92984 23.1763 6.18115 22.535 2.51599Z" fill="#6A6A6A"/>
<path d="M9.20698 11.508L15.186 8.056L9.20698 4.603V11.508Z" fill="black"/>
</svg>
