<svg width="24" height="24" viewBox="0 0 24 24" fill="none" xmlns="http://www.w3.org/2000/svg">
<g clip-path="url(#clip0_53_6)">
<path d="M23.098 11.549C23.098 5.17066 17.9273 0 11.549 0C5.17066 0 0 5.17066 0 11.549C0 17.9273 5.17066 23.098 11.549 23.098C17.9273 23.098 23.098 17.9273 23.098 11.549Z" fill="#6A6A6A"/>
<path d="M9.874 23.099H13.137V14.855H16.158L16.472 11.745C16.472 11.745 16.538 11.592 16.208 11.592H13.137V9.24501C13.1104 9.01775 13.1332 8.78743 13.2037 8.56976C13.2742 8.3521 13.3909 8.1522 13.5457 7.98372C13.7005 7.81524 13.8899 7.68213 14.1008 7.59348C14.3117 7.50482 14.5393 7.46271 14.768 7.47001H16.568V4.72601C15.712 4.44995 14.8113 4.33931 13.914 4.40001C12.8152 4.43903 11.767 4.87125 10.96 5.61801C10.3576 6.15784 9.97082 6.89733 9.87099 7.70001V11.593H6.783V14.856H9.874V23.099Z" fill="#1D1D1D"/>
</g>
<defs>
<clipPath id="clip0_53_6">
<rect width="23.098" height="23.098" fill="white"/>
</clipPath>
</defs>
</svg>
